{"title":"Better.Angel.[Schutzengel].2012.720p.BRRip.XviD.AC3.HORiZON-ArtS","uid":8205511,"size":1680222698,"categoryP":"video","categoryS":"hd___movies","magnet":"?xt=urn:btih:35d0b37e865e2afb327d9fa208cfd17dfdbef96c&amp;dn=Better.Angel.%5BSchutzengel%5D.2012.720p.BRRip.XviD.AC3.HORiZON-ArtS&amp;tr=udp%3A%2F%2Ftracker.openbittorrent.com%3A80&amp;tr=udp%3A%2F%2Fopen.demonii.com%3A1337&amp;tr=udp%3A%2F%2Ftracker.coppersurfer.tk%3A6969&amp;tr=udp%3A%2F%2Fexodus.desync.com%3A6969","seeders":7,"leechers":1,"uploader":"lletaif","files":3,"time":1362113457,"description":"Title:\n\nBetter Angel aka Schutzengel\n\nCountry:\nGermany/2012\n\nLanguage:\nGerman\n\nSubtitle:\nEnglish\n\nDirector:\nTil Schweiger\n\nWriters:\nStephen Butchard, Paul Maurice\n\nStars:\nTil Schweiger, Luna Schweiger, Karoline Schuch, David Akinloye\n\nSynopsis:\nA troubled former soldier works to protect an orphan who witnessed a murder from the assassins out to get her. \n\nImdb: &lt;a href=&quot;\nhttp://www.imdb.com/title/tt2199581/&quot; rel=&quot;nofollow&quot; target=&quot;_NEW&quot;&gt;\nhttp://www.imdb.com/title/tt2199581/&lt;/a&gt;\n\nTrailer: &lt;a href=&quot;\nhttp://www.film-zeit.de/Film/22615/SCHUTZENGEL/Trailer/&quot; rel=&quot;nofollow&quot; target=&quot;_NEW&quot;&gt;\nhttp://www.film-zeit.de/Film/22615/SCHUTZENGEL/Trailer/&lt;/a&gt;\n\n\nMedia Info:\n\nGeneral\nComplete name                            : Better.Angel.[Schutzengel].2012.720p.BRRip.XviD.AC3.HORiZON-ArtSubs\nFormat                                   : AVI\nFormat/Info                              : Audio Video Interleave\nFile size                                : 1.56 GiB\nDuration                                 : 2h 12mn\nOverall bit rate                         : 1 680 Kbps\n\nVideo\nID                                       : 0\nFormat                                   : MPEG-4 Visual\nFormat profile                           : Advanced Simple@L5\nFormat settings, BVOP                    : 2\nFormat settings, QPel                    : No\nFormat settings, GMC                     : No warppoints\nFormat settings, Matrix                  : Default (H.263)\nCodec ID                                 : XVID\nCodec ID/Hint                            : XviD\nDuration                                 : 2h 12mn\nBit rate                                 : 1 223 Kbps\nWidth                                    : 720 pixels\nHeight                                   : 304 pixels\nDisplay aspect ratio                     : 2.35:1\nFrame rate                               : 23.976 fps\nColor space                              : YUV\nChroma subsampling                       : 4:2:0\nBit depth                                : 8 bits\nScan type                                : Progressive\nCompression mode                         : Lossy\nBits/(Pixel*Frame)                       : 0.233\nStream size                              : 1.14 GiB (73%)\nWriting library                          : XviD 1.2.1 (UTC 2008-12-04)\n\nAudio\nID                                       : 1\nFormat                                   : AC-3\nFormat/Info                              : Audio Coding 3\nMode extension                           : CM (complete main)\nFormat settings, Endianness              : Big\nCodec ID                                 : 2000\nDuration                                 : 2h 12mn\nBit rate mode                            : Constant\nBit rate                                 : 448 Kbps\nChannel(s)                               : 6 channels\nChannel positions                        : Front: L C R, Side: L R, LFE\nSampling rate                            : 48.0 KHz\nBit depth                                : 16 bits\nCompression mode                         : Lossy\nStream size                              : 426 MiB (27%)\nAlignment                                : Split accross interleaves\nInterleave, duration                     : 42 ms (1.00 video frame)\nInterleave, preload duration             : 500 ms\n\n","torrent":{"xt":"urn:btih:35d0b37e865e2afb327d9fa208cfd17dfdbef96c","amp;dn":"Better.Angel.%5BSchutzengel%5D.2012.720p.BRRip.XviD.AC3.HORiZON-ArtS","amp;tr":["udp%3A%2F%2Ftracker.openbittorrent.com%3A80","udp%3A%2F%2Fopen.demonii.com%3A1337","udp%3A%2F%2Ftracker.coppersurfer.tk%3A6969","udp%3A%2F%2Fexodus.desync.com%3A6969"],"infoHash":"35d0b37e865e2afb327d9fa208cfd17dfdbef96c","infoHashBuffer":{"type":"Buffer","data":[53,208,179,126,134,94,42,251,50,125,159,162,8,207,209,125,253,190,249,108]},"announce":[],"urlList":[]}}